<svg width="1618" height="610" viewBox="0 0 1618 610" fill="none" xmlns="http://www.w3.org/2000/svg">
<path d="M1235 136.5C1235 136.8 1232.8 148.1 1230 161.6C1227.3 175.1 1225 186.8 1225 187.6C1225 188.8 1229.8 189 1253 189H1281L1281.5 186.7C1281.8 185.5 1284 174.6 1286.5 162.5C1289 150.4 1291.2 139.5 1291.5 138.2L1292 136H1263.5C1247.8 136 1235 136.2 1235 136.5Z" fill="white"/>
<path d="M984.501 173.1C969.101 175.2 956.301 176.9 956.001 176.9C955.701 177 953.901 184.9 952.001 194.5L948.601 212H933.301C918.301 212 918.001 212 917.501 214.2C917.201 215.5 915.501 223.2 913.701 231.5L910.301 246.5L926.001 246.8L941.701 247L930.401 303.5C918.101 364.8 916.401 376.1 918.001 385.5C920.201 398.7 929.101 410.8 940.501 416.2C955.201 423 981.001 423.9 1003.5 418.2L1010.4 416.5L1014.1 398C1016.2 387.8 1017.7 379.4 1017.6 379.3C1017.5 379.2 1014.5 380 1011 381.1C994.201 386.3 982.401 383.6 977.101 373.3C974.301 367.9 976.201 356.4 997.101 252.2L998.101 247H1019.4H1040.7L1044.2 229.5L1047.7 212H1026.3C1006.4 212 1004.9 211.9 1005.4 210.2C1006.8 205.5 1013.1 171.8 1012.8 170.6C1012.6 169.6 1006.3 170.2 984.501 173.1Z" fill="white"/>
<path d="M558 208.5C532.7 214.7 505.2 240.7 480.5 281.5C476.9 287.6 474.1 291.4 474.5 290C475.1 287 490 212.7 490 212.3C490 212.1 477.8 212.1 462.8 212.2L435.6 212.5L415.3 313.5C404.2 369 395.1 415.3 395 416.2C395 417.9 396.9 418 421.9 418C446.7 418 448.9 417.9 449.4 416.2C449.7 415.3 452.9 399.3 456.5 380.8L463 347L470.2 336.8C498.6 296 522.8 267.9 535.3 261.2C540.7 258.4 543.5 258.4 546.5 261.5C550.8 265.7 550.2 270.8 535 346.5C527.3 385 521 416.8 521 417.2C521 417.7 532.9 418 547.4 418C571.7 418 573.9 417.9 574.4 416.2C574.6 415.3 577.9 399.2 581.5 380.6L588.1 346.6L600.6 329.4C632.2 285.5 657.4 259 667.4 259C673 259 676.5 265.3 675.5 273.4C675.1 276.2 668.5 309.8 660.9 348C653.2 386.2 647 417.6 647 417.7C647 417.9 659.2 417.9 674.2 417.8L701.4 417.5L717.2 338.5C731.2 268.6 733.1 258.3 733.2 249C733.3 236.4 731.6 229.6 726.2 221.6C718.8 210.5 709.4 206.3 694.1 207.2C677.1 208.2 661.4 216.1 644.4 232.3C629.9 246.1 614 266.9 603 286.3C601.2 289.5 599.6 292 599.5 291.8C599.4 291.6 600.5 284.7 602.1 276.5C607.4 248.4 607 232.5 600.7 221.8C593.3 209.5 576 204.1 558 208.5Z" fill="white"/>
<path d="M836.5 208.6C795.4 215.9 759 245.9 738 289.5C727.4 311.6 723.6 327.8 723.5 351C723.5 368.8 724.9 375.8 730.7 387.5C738.7 403.5 753.6 414.6 774.5 420.1C795.8 425.7 833.5 422.5 866 412.4C877.3 408.9 898.8 400.6 900.2 399.1C901 398.4 910 355 909.4 355C909.2 355 901.3 358.8 891.8 363.4C873.6 372.3 863 376.3 846.5 380.4C821.4 386.7 808.9 386.4 795.7 379.2C786.4 374.2 781.1 364.8 779.4 350.4L778.7 345H783.3C797.4 345 825.5 338.9 841.5 332.5C877 318.2 899.5 296.2 907.1 268.4C910.1 257.3 909.6 240.9 905.9 233C900.1 220.7 888 211.7 872.8 208.6C863.4 206.7 847.4 206.7 836.5 208.6ZM847 247.3C853.5 250.7 856.3 256.5 855.7 265C855.2 273.2 851.9 279.8 844.4 287.9C831.9 301.5 817.2 307.5 791.7 309.6C784.5 310.2 783 310 783.4 308.9C783.6 308.1 785.1 303.7 786.5 299C790.8 285.7 798.5 271.8 806.2 263.5C821.1 247.5 836.1 241.5 847 247.3Z" fill="white"/>
<path d="M1183.3 208.5C1158.6 215.2 1128.8 243.3 1106.3 281.2C1103.1 286.6 1100.4 290.6 1100.2 290.2C1100.1 289.8 1103.4 272.6 1107.5 252C1111.6 231.4 1115 214 1115 213.3C1115 212.2 1109.5 212 1086.8 212.2L1058.7 212.5L1038.3 314.5C1027.2 370.6 1018 416.8 1018 417.3C1018 417.7 1030.7 417.9 1046.2 417.8L1074.4 417.5L1081.3 383.5L1088.3 349.6L1095.3 339C1111.1 315.4 1131 290.2 1143.7 277.8C1152.9 268.9 1161.1 263.4 1168.8 261C1176.9 258.5 1181.5 258.5 1189.1 261C1192.5 262.2 1195.3 263 1195.5 262.8C1195.8 262.4 1211.2 211.7 1211.4 210.5C1211.8 207.5 1192.4 206.1 1183.3 208.5Z" fill="white"/>
<path d="M1377.6 208C1363.3 210.3 1345.6 216.8 1332 224.9C1295.3 246.7 1268.9 284.2 1259.9 327.4C1257.1 340.8 1256.8 363.4 1259.3 373C1264.3 391.8 1275.2 405.6 1292 414.4C1302.4 419.9 1311.6 422.1 1327.1 422.7C1349.2 423.6 1371.6 420.5 1393.6 413.5L1404.7 409.9L1416.1 413.3C1441.3 421 1459.8 423.6 1483 422.7C1499.8 422.1 1511.2 420 1522 415.6C1539.8 408.3 1553.6 394.5 1559.2 378.2C1561 372.8 1561.5 369.3 1561.5 360.5C1561.5 337.5 1556.7 330.2 1514.8 290.5C1498.7 275.2 1496.6 271.8 1497.2 262.4C1497.7 254.7 1501.1 249.8 1508.6 246C1513.1 243.7 1514.5 243.5 1527 243.5C1542 243.6 1549.8 245.2 1566.4 251.6C1571.3 253.5 1575.5 254.9 1575.6 254.7C1576.2 254.1 1583 219.8 1583 217.4C1583 215.4 1582 214.9 1572.3 212.6C1553.5 208.2 1547.5 207.5 1525 207.5C1501.7 207.6 1493.9 208.8 1480 214.4C1466.3 220 1453.3 232.5 1446.2 247C1442.5 254.5 1442.5 254.5 1442.5 267.5C1442.5 280.1 1442.6 280.7 1445.8 287.5C1450.8 298 1455.3 303.4 1479.5 328C1493 341.6 1502.6 352.2 1503.9 354.9C1508.5 363.8 1506.4 373.9 1498.7 380.5C1492.3 386 1486.7 387.3 1472.6 386.7C1449.4 385.7 1429.7 377.7 1421.8 366.2L1420.3 363.9L1414.9 366.1C1396.4 373.5 1374.3 379.6 1360.8 381.1C1342.1 383.2 1328.2 377.3 1322 364.6C1313.3 346.7 1317.6 314 1332.8 284.6C1341.2 268.3 1352.2 256.3 1364.8 249.7C1383.1 240.1 1398.5 240.6 1425.7 251.6C1432 254.1 1437.3 256 1437.6 255.8C1438.1 255.2 1445 220.2 1445 217.8C1445 215.8 1440.2 214.1 1424.5 210.4C1412.2 207.6 1388.3 206.4 1377.6 208Z" fill="white"/>
<path d="M1219 212.3C1219 212.4 1209.8 258.6 1198.5 315C1187.2 371.4 1178 417.6 1178 417.7C1178 417.9 1190.8 418 1206.4 418H1234.7L1254.9 316.7C1266 261.1 1275.3 214.7 1275.6 213.7C1276.1 212.1 1274.3 212 1247.6 212C1231.9 212 1219 212.1 1219 212.3Z" fill="white"/>
<path d="M352 305.5V605H362H372V305.5V5.99999H362H352V305.5Z" fill="#ECC115"/>
<path d="M82.5 137.2C82.1 138.4 72 187.7 72 188.6C72 188.8 84.7 189 100.3 189H128.5L133.8 163.2C136.7 149.1 139 137.2 139 136.7C139 136.3 126.4 136 111 136C89.4 136 82.8 136.3 82.5 137.2Z" fill="#ECC115"/>
<path d="M269.2 209C254.5 212.9 237.3 224.2 223.5 239.3C213.9 249.7 200.5 267.8 193 280.3C189.5 286.3 186.4 290.8 186.3 290.3C186.1 289.9 189.4 272.6 193.5 252C197.6 231.4 201 214 201 213.3C201 212.2 195.4 212 172.8 212.2L144.7 212.5L124.3 314.5C113.2 370.6 104 416.8 104 417.3C104 417.7 116.7 417.9 132.2 417.8L160.3 417.5L167.3 383.6L174.2 349.7L183.3 336.1C193.6 320.6 206.6 303.1 218.6 288.4C242.7 258.9 262.1 250.2 262 268.9C261.9 272 255.5 306.8 247.6 346.2L233.4 418H261.6H289.8L290.3 415.7C290.6 414.5 297.7 379.4 306 337.7C320.2 266.5 321.1 261.2 321.1 250.2C321.2 237.7 320.2 232.3 316.5 225C314.2 220.5 308.7 214.7 303.9 211.8C296 206.9 281.7 205.7 269.2 209Z" fill="#ECC115"/>
<path d="M46.2008 313.7C35.0008 369.7 25.9008 416.1 26.0008 416.7C26.0008 417.7 32.3008 418 54.0008 418H82.0008L82.5008 415.7C83.4008 411.8 123.001 213.6 123.001 212.8C123.001 212.3 110.301 212 94.7008 212H66.5008L46.2008 313.7Z" fill="#ECC115"/>
</svg>
